<mxfile host="app.diagrams.net" modified="2024-05-08T23:49:57.637Z" agent="Mozilla/5.0 (Windows NT 10.0; Win64; x64) AppleWebKit/537.36 (KHTML, like Gecko) Chrome/124.0.0.0 Safari/537.36" version="24.3.1" etag="32U3R7-iXFNQO7shl-X9" type="github">
  <diagram name="PÃ¡gina-1" id="8t9fzpK0QOuH9VnMpRkP">
    <mxGraphModel>
      <root>
        <mxCell id="0" />
        <mxCell id="1" parent="0" />
      </root>
    </mxGraphModel>
  </diagram>
</mxfile>
